<svg width="25" height="25" viewBox="0 0 25 25" fill="none" xmlns="http://www.w3.org/2000/svg">
<path d="M9.16677 18.585C10.0052 18.585 10.6849 19.2647 10.6849 20.1032C10.6849 20.9416 10.0052 21.6213 9.16677 21.6213C8.32832 21.6213 7.64862 20.9416 7.64862 20.1032C7.64862 19.2647 8.32832 18.585 9.16677 18.585Z" stroke="#1B1B1B" stroke-width="1.51815"/>
<path d="M16.2515 18.585C17.0899 18.585 17.7696 19.2647 17.7696 20.1032C17.7696 20.9416 17.0899 21.6213 16.2515 21.6213C15.413 21.6213 14.7333 20.9416 14.7333 20.1032C14.7333 19.2647 15.413 18.585 16.2515 18.585Z" stroke="#1B1B1B" stroke-width="1.51815"/>
<path d="M5.87744 12.5124C5.87744 11.0597 5.87905 10.0464 5.98184 9.28192C6.08168 8.53926 6.26432 8.14599 6.54443 7.86588C6.82453 7.58577 7.21781 7.40314 7.96047 7.3033C8.72496 7.20051 9.73818 7.1989 11.191 7.1989H14.1435C15.8305 7.1989 17.0143 7.20071 17.8941 7.32558C18.7529 7.44747 19.1819 7.66964 19.4653 8.00419C19.7487 8.33873 19.8974 8.79846 19.8764 9.66558C19.855 10.5539 19.662 11.7219 19.3847 13.386C19.1796 14.6169 19.0359 15.4706 18.8454 16.1105C18.661 16.7301 18.4572 17.0579 18.1876 17.2863C17.9179 17.5147 17.5611 17.6618 16.9197 17.7418C16.2571 17.8245 15.3915 17.826 14.1435 17.826H11.191C9.73818 17.826 8.72496 17.8243 7.96047 17.7216C7.21781 17.6217 6.82453 17.4391 6.54443 17.159C6.26432 16.8788 6.08168 16.4856 5.98184 15.7429C5.87905 14.9784 5.87744 13.9652 5.87744 12.5124Z" stroke="#1B1B1B" stroke-width="1.51815"/>
<path d="M5.87746 12.0064V5.42772C5.87746 4.30979 4.9712 3.40352 3.85326 3.40352H2.58813" stroke="#1B1B1B" stroke-width="1.51815" stroke-linecap="round"/>
</svg>
