<svg width="21" height="21" viewBox="0 0 21 21" fill="none" xmlns="http://www.w3.org/2000/svg">
<path fill-rule="evenodd" clip-rule="evenodd" d="M8.90276 15.7803C8.46308 15.7803 8.12873 16.1902 8.35874 16.5648C8.7638 17.2248 9.49209 17.6649 10.3232 17.6649C11.1543 17.6649 11.8826 17.2248 12.2878 16.5648C12.5178 16.1902 12.1834 15.7803 11.7437 15.7803C11.4639 15.7803 11.2236 15.9646 11.0132 16.149C10.829 16.3106 10.5875 16.4085 10.3232 16.4085C10.0589 16.4085 9.8175 16.3106 9.63323 16.149C9.42291 15.9646 9.18252 15.7803 8.90276 15.7803Z" fill="#999999"/>
<mask id="mask0_8_137" style="mask-type:alpha" maskUnits="userSpaceOnUse" x="3" y="1" width="15" height="15">
<path fill-rule="evenodd" clip-rule="evenodd" d="M16.6052 9.1514C16.6052 6.64837 15.3628 4.30856 13.2892 2.90654L12.1998 2.16994C11.0661 1.4034 9.58023 1.4034 8.44653 2.16994L7.35713 2.90653C5.2836 4.30856 4.04118 6.64836 4.04118 9.1514V10.7545C3.52711 11.2146 3.20358 11.8832 3.20358 12.6274C3.20358 14.0153 4.32861 15.1402 5.71638 15.1402H14.93C16.3178 15.1402 17.4428 14.0153 17.4428 12.6274C17.4428 11.8832 17.1192 11.2146 16.6052 10.7545V9.1514Z" fill="white"/>
</mask>
<g mask="url(#mask0_8_137)">
<path d="M13.2892 2.90665L12.5855 3.94746L13.2892 2.90665ZM16.6052 9.15151H17.8616H16.6052ZM12.1998 2.17005L12.9036 1.12924L12.1998 2.17005ZM8.44653 2.17005L7.74279 1.12924L8.44653 2.17005ZM7.35713 2.90664L8.06087 3.94746L7.35713 2.90664ZM4.04117 9.15151H5.29758H4.04117ZM4.04117 10.7546L4.87909 11.6908L5.29758 11.3162V10.7546H4.04117ZM16.6052 10.7546H15.3488V11.3162L15.7672 11.6908L16.6052 10.7546ZM12.5855 3.94746C14.3134 5.1158 15.3488 7.06565 15.3488 9.15151H17.8616C17.8616 6.2313 16.4121 3.50152 13.993 1.86583L12.5855 3.94746ZM11.4961 3.21086L12.5855 3.94746L13.993 1.86583L12.9036 1.12924L11.4961 3.21086ZM9.15029 3.21086C9.85881 2.73178 10.7875 2.73178 11.4961 3.21086L12.9036 1.12924C11.3447 0.0752481 9.30164 0.0752478 7.74279 1.12924L9.15029 3.21086ZM8.06087 3.94746L9.15029 3.21086L7.74279 1.12924L6.65338 1.86583L8.06087 3.94746ZM5.29758 9.15151C5.29758 7.06565 6.33292 5.1158 8.06087 3.94746L6.65338 1.86583C4.23425 3.50152 2.78477 6.2313 2.78477 9.15151H5.29758ZM5.29758 10.7546V9.15151H2.78477V10.7546H5.29758ZM4.45998 12.6276C4.45998 12.2556 4.62004 11.9226 4.87909 11.6908L3.20326 9.81841C2.43415 10.5068 1.94717 11.5111 1.94717 12.6276H4.45998ZM5.71638 13.884C5.02248 13.884 4.45998 13.3214 4.45998 12.6276H1.94717C1.94717 14.7092 3.6347 16.3968 5.71638 16.3968V13.884ZM14.93 13.884H5.71638V16.3968H14.93V13.884ZM16.1864 12.6276C16.1864 13.3214 15.6238 13.884 14.93 13.884V16.3968C17.0117 16.3968 18.6992 14.7092 18.6992 12.6276H16.1864ZM15.7672 11.6908C16.0263 11.9226 16.1864 12.2556 16.1864 12.6276H18.6992C18.6992 11.5111 18.2122 10.5068 17.4431 9.81841L15.7672 11.6908ZM15.3488 9.15151V10.7546H17.8616V9.15151H15.3488Z" fill="#999999"/>
</g>
</svg>
