<svg width="21" height="21" viewBox="0 0 21 21" fill="none" xmlns="http://www.w3.org/2000/svg">
<path fill-rule="evenodd" clip-rule="evenodd" d="M17.1515 17.6531C17.1515 17.6531 18.4079 17.6531 18.4079 16.3967C18.4079 15.1403 17.1515 11.3711 10.8695 11.3711C4.58749 11.3711 3.33109 15.1403 3.33109 16.3967C3.33109 17.6531 4.58749 17.6531 4.58749 17.6531H17.1515ZM4.59377 16.4671V16.4645V16.4671ZM4.61513 16.3967H17.1238C17.1297 16.396 17.1356 16.3952 17.1414 16.3942L17.1515 16.3917C17.1502 16.0826 16.958 15.1529 16.1062 14.301C15.287 13.4818 13.7454 12.6275 10.8695 12.6275C7.99233 12.6275 6.45198 13.4818 5.63281 14.301C4.78097 15.1529 4.59 16.0826 4.58749 16.3917C4.59668 16.3934 4.6059 16.3951 4.61513 16.3967ZM17.1465 16.4671V16.4645V16.4671ZM10.8695 8.8583C11.5359 8.8583 12.1751 8.59356 12.6463 8.12231C13.1175 7.65107 13.3823 7.01193 13.3823 6.3455C13.3823 5.67906 13.1175 5.03992 12.6463 4.56868C12.1751 4.09744 11.5359 3.83269 10.8695 3.83269C10.2031 3.83269 9.56391 4.09744 9.09267 4.56868C8.62143 5.03992 8.35669 5.67906 8.35669 6.3455C8.35669 7.01193 8.62143 7.65107 9.09267 8.12231C9.56391 8.59356 10.2031 8.8583 10.8695 8.8583ZM14.6387 6.3455C14.6387 7.34515 14.2416 8.30386 13.5347 9.01072C12.8279 9.71759 11.8691 10.1147 10.8695 10.1147C9.86983 10.1147 8.91112 9.71759 8.20426 9.01072C7.4974 8.30386 7.10029 7.34515 7.10029 6.3455C7.10029 5.34584 7.4974 4.38713 8.20426 3.68027C8.91112 2.97341 9.86983 2.57629 10.8695 2.57629C11.8691 2.57629 12.8279 2.97341 13.5347 3.68027C14.2416 4.38713 14.6387 5.34584 14.6387 6.3455Z" fill="#999999"/>
</svg>
