<svg width="21" height="21" viewBox="0 0 21 21" fill="none" xmlns="http://www.w3.org/2000/svg">
<path d="M18.606 10.673C18.5325 10.6735 18.4597 10.6594 18.3916 10.6316C18.3236 10.6038 18.2617 10.5628 18.2095 10.5111L10.23 2.52597L2.25047 10.5111C2.14365 10.6026 2.00624 10.6504 1.86571 10.6449C1.72517 10.6395 1.59186 10.5813 1.49241 10.4818C1.39296 10.3824 1.3347 10.249 1.32927 10.1085C1.32385 9.96798 1.37165 9.83057 1.46313 9.72374L9.83913 1.34774C9.94375 1.24374 10.0853 1.18536 10.2328 1.18536C10.3803 1.18536 10.5219 1.24374 10.6265 1.34774L19.0025 9.72374C19.0793 9.80213 19.1313 9.90143 19.1521 10.0092C19.1728 10.117 19.1613 10.2285 19.119 10.3298C19.0767 10.4311 19.0054 10.5177 18.9142 10.5787C18.823 10.6398 18.7158 10.6726 18.606 10.673Z" fill="#242424"/>
<path d="M10.23 4.41339L3.52917 11.1365V17.9323C3.52917 18.2285 3.64684 18.5125 3.85628 18.722C4.06572 18.9314 4.34978 19.0491 4.64598 19.0491H8.55478V13.4651H11.9052V19.0491H15.814C16.1102 19.0491 16.3942 18.9314 16.6037 18.722C16.8131 18.5125 16.9308 18.2285 16.9308 17.9323V11.0974L10.23 4.41339Z" fill="#242424"/>
</svg>
