<svg width="14" height="15" viewBox="0 0 14 15" fill="none" xmlns="http://www.w3.org/2000/svg">
<path d="M10.5065 7.71475C10.5037 7.41518 10.383 7.12877 10.1705 6.91758L7.72776 4.46911C7.62107 4.36306 7.47676 4.30353 7.32633 4.30353C7.1759 4.30353 7.03158 4.36306 6.92489 4.46911C6.87152 4.52204 6.82916 4.58502 6.80025 4.65441C6.77134 4.7238 6.75646 4.79822 6.75646 4.87339C6.75646 4.94856 6.77134 5.02298 6.80025 5.09237C6.82916 5.16176 6.87152 5.22474 6.92489 5.27767L8.79825 7.14534H3.10414C2.95312 7.14534 2.80829 7.20533 2.70151 7.31212C2.59472 7.4189 2.53473 7.56373 2.53473 7.71475C2.53473 7.86577 2.59472 8.0106 2.70151 8.11738C2.80829 8.22417 2.95312 8.28416 3.10414 8.28416H8.79825L6.92489 10.1575C6.81767 10.264 6.75713 10.4087 6.7566 10.5598C6.75606 10.7109 6.81558 10.856 6.92204 10.9632C7.02851 11.0705 7.17321 11.131 7.32431 11.1315C7.47541 11.1321 7.62054 11.0726 7.72776 10.9661L10.1705 8.51762C10.3844 8.30503 10.5052 8.0163 10.5065 7.71475V7.71475Z" fill="#202727"/>
</svg>
