<svg width="25" height="19" viewBox="0 0 25 19" fill="none" xmlns="http://www.w3.org/2000/svg">
<path d="M22.3347 5.22037H21.9438V2.48421C21.9425 1.40538 21.0682 0.531078 19.9894 0.529808H5.13595C4.05713 0.531078 3.18282 1.40538 3.18155 2.48421V5.22037H2.79067C1.71184 5.22164 0.837544 6.09594 0.836273 7.17477V13.4289C0.837544 14.5077 1.71184 15.382 2.79067 15.3833H3.18155V18.1194C3.18155 18.3353 3.35657 18.5103 3.57243 18.5103H4.35419C4.51724 18.5104 4.66323 18.4093 4.72045 18.2566L5.79771 15.3833H19.3276L20.4049 18.2566C20.4621 18.4093 20.6081 18.5104 20.7712 18.5103H21.5529C21.7688 18.5103 21.9438 18.3353 21.9438 18.1194V15.3833H22.3347C23.4135 15.382 24.2878 14.5077 24.2891 13.4289V7.17477C24.2878 6.09594 23.4135 5.22164 22.3347 5.22037ZM3.96331 2.48421C3.96331 1.83657 4.48832 1.31157 5.13595 1.31157H19.9894C20.637 1.31157 21.162 1.83657 21.162 2.48421V5.22037H19.9894C19.7735 5.22037 19.5985 5.39539 19.5985 5.61125V9.91093H5.52683V5.61125C5.52683 5.39539 5.35182 5.22037 5.13595 5.22037H3.96331V2.48421ZM1.61803 7.17477C1.61803 6.52713 2.14303 6.00213 2.79067 6.00213H4.74507V9.91093H1.61803V7.17477ZM4.08331 17.7285H3.96331V15.3833H4.96279L4.08331 17.7285ZM21.162 17.7285H21.042L20.1626 15.3833H21.162V17.7285ZM23.5073 13.4289C23.5073 14.0765 22.9823 14.6015 22.3347 14.6015H2.79067C2.14303 14.6015 1.61803 14.0765 1.61803 13.4289V10.6927H23.5073V13.4289ZM23.5073 9.91093H20.3803V6.00213H22.3347C22.9823 6.00213 23.5073 6.52713 23.5073 7.17477V9.91093Z" fill="#909090"/>
</svg>
