<svg width="24" height="17" viewBox="0 0 24 17" fill="none" xmlns="http://www.w3.org/2000/svg">
<path d="M23.1263 0.091713H0.406428C0.204056 0.091713 0.039978 0.255791 0.039978 0.458163V2.65686C0.039978 2.85924 0.204056 3.02331 0.406428 3.02331H1.50578V16.582C1.50578 16.7843 1.66986 16.9484 1.87223 16.9484H3.33803C3.5404 16.9484 3.70448 16.7843 3.70448 16.582V3.02331H19.8283V16.582C19.8283 16.7843 19.9924 16.9484 20.1947 16.9484H21.6605C21.8629 16.9484 22.027 16.7843 22.027 16.582V3.02331H23.1263C23.3287 3.02331 23.4928 2.85924 23.4928 2.65686V0.458163C23.4928 0.255791 23.3287 0.091713 23.1263 0.091713ZM22.7599 2.29041H21.6605C21.4582 2.29041 21.2941 2.45449 21.2941 2.65686V16.2155H20.5612V2.65686C20.5612 2.45449 20.3971 2.29041 20.1947 2.29041H3.33803C3.13566 2.29041 2.97158 2.45449 2.97158 2.65686V16.2155H2.23868V2.65686C2.23868 2.45449 2.0746 2.29041 1.87223 2.29041H0.772878V0.824613H22.7599V2.29041Z" fill="#909090"/>
</svg>
