<svg width="14" height="25" viewBox="0 0 14 25" fill="none" xmlns="http://www.w3.org/2000/svg">
<path d="M11.858 12.566H11.8213L12.2093 4.27539C12.2182 4.08584 12.0717 3.92502 11.8822 3.91618C11.6927 3.90706 11.5318 4.05378 11.523 4.24328L11.1334 12.566H2.81392L2.48865 5.61829C2.37042 3.09249 2.3772 3.25597 2.3772 3.19665C2.3772 2.25052 3.1478 1.48075 4.09498 1.48075H9.85228C10.7995 1.48075 11.5701 2.25052 11.5701 3.19665C11.5701 3.25286 11.5722 3.19216 11.523 4.24328C11.5141 4.43278 11.6605 4.59361 11.8501 4.60249C12.0395 4.6117 12.2004 4.46494 12.2093 4.27539C12.2583 3.22725 12.2572 3.27416 12.2572 3.19665C12.2572 1.87161 11.1783 0.793655 9.85228 0.793655H4.09503C2.76898 0.793655 1.69015 1.87161 1.69015 3.19665C1.69015 3.278 1.68301 3.10096 1.80238 5.6504L2.12614 12.566H2.08945C1.44536 12.566 0.921387 13.09 0.921387 13.7341V15.4376C0.921387 16.0816 1.44536 16.6056 2.08945 16.6056H2.32585V20.3846C2.32585 20.5744 2.47967 20.7282 2.6694 20.7282C2.85913 20.7282 3.01295 20.5744 3.01295 20.3846V16.6056H4.04427L3.5683 23.3011C3.55799 23.4459 3.4362 23.5594 3.29094 23.5594C3.13763 23.5594 3.01295 23.4346 3.01295 23.2814V20.3846C3.01295 20.1949 2.85913 20.0411 2.6694 20.0411C2.47967 20.0411 2.32585 20.1949 2.32585 20.3846V23.2814C2.32585 23.8135 2.75881 24.2465 3.29094 24.2465C3.79504 24.2465 4.21788 23.8526 4.25365 23.3498L4.73311 16.6056H9.21443L9.69388 23.3498C9.72952 23.8526 10.1524 24.2465 10.6565 24.2465C11.1886 24.2465 11.6215 23.8135 11.6215 23.2814V16.6056H11.858C12.502 16.6056 13.026 16.0816 13.026 15.4376V13.7341C13.026 13.09 12.502 12.566 11.858 12.566ZM10.9345 23.2814C10.9345 23.4347 10.8097 23.5594 10.6565 23.5594C10.5112 23.5594 10.3894 23.4459 10.3791 23.3011L9.90312 16.6056H10.9345V23.2814ZM12.3389 15.4376C12.3389 15.7028 12.1232 15.9185 11.858 15.9185C10.7954 15.9185 3.14244 15.9185 2.08935 15.9185C1.82414 15.9185 1.60839 15.7028 1.60839 15.4376V13.7341C1.60839 13.4689 1.82414 13.2531 2.08935 13.2531H11.858C12.1232 13.2531 12.3389 13.4689 12.3389 13.7341V15.4376Z" fill="#909090"/>
</svg>
