<svg width="22" height="21" viewBox="0 0 22 21" fill="none" xmlns="http://www.w3.org/2000/svg">
<path d="M10.2054 1.97365C14.3666 1.97365 17.7438 5.35086 17.7438 9.51206C17.7438 13.6733 14.3666 17.0505 10.2054 17.0505C6.0442 17.0505 2.66699 13.6733 2.66699 9.51206C2.66699 5.35086 6.0442 1.97365 10.2054 1.97365ZM10.2054 15.3753C13.4444 15.3753 16.0686 12.7511 16.0686 9.51206C16.0686 6.27222 13.4444 3.64885 10.2054 3.64885C6.96556 3.64885 4.34219 6.27222 4.34219 9.51206C4.34219 12.7511 6.96556 15.3753 10.2054 15.3753ZM17.3124 15.4347L19.682 17.8035L18.4968 18.9887L16.1281 16.6191L17.3124 15.4347Z" fill="#808080"/>
</svg>
