<svg width="18" height="17" viewBox="0 0 18 17" fill="none" xmlns="http://www.w3.org/2000/svg">
<path d="M17.5405 6.61436C17.5051 6.50581 17.4113 6.42665 17.2982 6.41015L11.8739 5.62184L9.44804 0.706611C9.39767 0.60406 9.29332 0.539291 9.17937 0.539291C9.06543 0.539291 8.96078 0.60406 8.9107 0.706611L6.48457 5.62214L1.06019 6.41046C0.947149 6.42695 0.853594 6.50581 0.817911 6.61466C0.782828 6.7229 0.811914 6.84225 0.893774 6.92171L4.81918 10.7479L3.89233 16.1507C3.87313 16.2631 3.91931 16.3767 4.01137 16.4439C4.10402 16.5117 4.22666 16.5204 4.32712 16.4667L9.17937 13.9161L14.031 16.4667C14.0748 16.4898 14.1231 16.5012 14.1708 16.5012C14.2328 16.5012 14.2946 16.482 14.3471 16.4439C14.4394 16.3767 14.4856 16.2631 14.4661 16.1507L13.5396 10.7482L17.465 6.92171C17.5465 6.84165 17.5759 6.7226 17.5405 6.61436Z" fill="white"/>
</svg>
