<svg width="24" height="17" viewBox="0 0 24 17" fill="none" xmlns="http://www.w3.org/2000/svg">
<path d="M23.3499 12.551H22.9834V9.6194C22.9829 9.2308 22.8283 8.85826 22.5535 8.58348C22.2787 8.3087 21.9062 8.15411 21.5176 8.1536V1.92395C21.5171 1.53535 21.3625 1.16281 21.0877 0.88803C20.8129 0.61325 20.4404 0.458654 20.0518 0.458145H4.6609C4.2723 0.458654 3.89977 0.61325 3.62499 0.88803C3.3502 1.16281 3.19561 1.53535 3.1951 1.92395V8.1536C2.8065 8.15411 2.43397 8.3087 2.15918 8.58348C1.8844 8.85826 1.72981 9.2308 1.7293 9.6194V12.551H1.36285C1.26566 12.551 1.17245 12.5896 1.10373 12.6583C1.03501 12.7271 0.996399 12.8203 0.996399 12.9174V14.3833C0.996399 14.4804 1.03501 14.5736 1.10373 14.6424C1.17245 14.7111 1.26566 14.7497 1.36285 14.7497H1.7293V16.2155C1.7293 16.3127 1.76791 16.4059 1.83663 16.4746C1.90535 16.5433 1.99856 16.582 2.09575 16.582H3.1951C3.27979 16.582 3.36188 16.5527 3.42737 16.4989C3.49285 16.4452 3.53769 16.3705 3.55422 16.2874L3.86204 14.7497H20.8507L21.1585 16.2874C21.175 16.3705 21.2199 16.4452 21.2853 16.4989C21.3508 16.5527 21.4329 16.582 21.5176 16.582H22.617C22.7141 16.582 22.8074 16.5433 22.8761 16.4746C22.9448 16.4059 22.9834 16.3127 22.9834 16.2155V14.7497H23.3499C23.447 14.7497 23.5403 14.7111 23.609 14.6424C23.6777 14.5736 23.7163 14.4804 23.7163 14.3833V12.9174C23.7163 12.8203 23.6777 12.7271 23.609 12.6583C23.5403 12.5896 23.447 12.551 23.3499 12.551ZM3.928 1.92395C3.92825 1.72965 4.00555 1.54338 4.14294 1.40599C4.28033 1.2686 4.4666 1.1913 4.6609 1.19105H20.0518C20.2461 1.1913 20.4324 1.2686 20.5698 1.40599C20.7072 1.54338 20.7845 1.72965 20.7847 1.92395V8.1536H20.0518V6.6878C20.0513 6.2992 19.8967 5.92666 19.6219 5.65188C19.3471 5.3771 18.9746 5.22251 18.586 5.222H14.1886C13.8 5.22251 13.4275 5.3771 13.1527 5.65188C12.8779 5.92666 12.7233 6.2992 12.7228 6.6878V8.1536H11.9899V6.6878C11.9894 6.2992 11.8348 5.92666 11.56 5.65188C11.2852 5.3771 10.9127 5.22251 10.5241 5.222H6.1267C5.7381 5.22251 5.36557 5.3771 5.09079 5.65188C4.81601 5.92666 4.66141 6.2992 4.6609 6.6878V8.1536H3.928V1.92395ZM19.3189 6.6878V8.1536H13.4557V6.6878C13.456 6.4935 13.5333 6.30723 13.6706 6.16984C13.808 6.03245 13.9943 5.95515 14.1886 5.9549H18.586C18.7803 5.95515 18.9666 6.03245 19.104 6.16984C19.2414 6.30723 19.3187 6.4935 19.3189 6.6878ZM11.257 6.6878V8.1536H5.3938V6.6878C5.39406 6.4935 5.47135 6.30723 5.60874 6.16984C5.74613 6.03245 5.9324 5.95515 6.1267 5.9549H10.5241C10.7184 5.95515 10.9047 6.03245 11.0421 6.16984C11.1795 6.30723 11.2567 6.4935 11.257 6.6878ZM2.4622 9.6194C2.46245 9.4251 2.53975 9.23883 2.67714 9.10144C2.81453 8.96405 3.0008 8.88675 3.1951 8.8865H21.5176C21.7119 8.88675 21.8982 8.96405 22.0356 9.10144C22.173 9.23883 22.2503 9.4251 22.2505 9.6194V12.551H2.4622V9.6194ZM2.89461 15.8491H2.4622V14.7497H3.11448L2.89461 15.8491ZM22.2505 15.8491H21.8181L21.5982 14.7497H22.2505V15.8491ZM22.9834 14.0168H1.7293V13.2839H22.9834V14.0168Z" fill="#909090"/>
</svg>
